<svg version="1.1" id="Layer_1" xmlns="http://www.w3.org/2000/svg" xmlns:xlink="http://www.w3.org/1999/xlink" x="0px" y="0px"
	 width="100%" viewBox="0 0 141 88" enable-background="new 0 0 141 88" xml:space="preserve">
<path fill="#D8D2CB" opacity="1.000000" stroke="none" 
	d="
M96.000000,89.000000 
	C64.000000,89.000000 32.500000,89.000000 1.000000,89.000000 
	C1.000000,59.666668 1.000000,30.333334 1.000000,1.000000 
	C48.000000,1.000000 95.000000,1.000000 142.000000,1.000000 
	C142.000000,30.333334 142.000000,59.666668 142.000000,89.000000 
	C126.833336,89.000000 111.666664,89.000000 96.000000,89.000000 
M122.072845,64.109749 
	C103.807220,63.113411 87.009956,67.528526 71.595085,77.455742 
	C70.241173,78.327660 67.402702,78.421043 66.077995,77.579140 
	C50.154743,67.459267 32.772179,63.307232 13.746450,63.700016 
	C13.450111,63.453323 13.153772,63.206635 12.626990,62.051167 
	C12.607430,48.556343 12.558935,35.061451 12.590716,21.566748 
	C12.597769,18.572124 12.399027,16.069197 8.150925,17.336105 
	C8.150925,35.076759 8.150925,52.818851 8.150925,70.473877 
	C8.721824,70.684402 9.017509,70.884682 9.314227,70.886223 
	C10.311329,70.891403 11.315590,70.887314 12.305127,70.778152 
	C31.665611,68.642380 49.571484,72.713554 66.128044,83.037712 
	C67.336624,83.791344 69.939766,83.537277 71.243065,82.716835 
	C82.117836,75.870995 93.816795,71.414215 106.656181,70.592712 
	C113.901794,70.129112 121.201393,70.509109 128.759094,70.509109 
	C128.759094,52.889343 128.759094,35.146667 128.759094,17.041855 
	C127.227333,17.134401 125.854965,17.217316 123.873970,17.337004 
	C123.873970,32.787647 123.873970,47.910660 123.504692,63.278141 
	C123.294426,63.490353 123.127007,63.732224 122.072845,64.109749 
M65.494026,70.785423 
	C65.581566,58.214043 65.669106,45.642662 65.666031,32.399387 
	C57.828217,19.641586 45.661789,13.044440 31.811497,9.188380 
	C27.746851,8.056743 23.284767,8.352632 18.256863,8.434541 
	C18.187048,24.255802 18.105709,40.077053 18.088531,55.898373 
	C18.087828,56.547340 18.689980,57.196968 19.867546,57.983498 
	C35.770851,58.797604 50.943726,62.251690 65.494026,70.785423 
M71.246559,33.122936 
	C71.146805,45.227062 71.036079,57.331146 70.992531,69.435471 
	C70.990997,69.863266 71.655998,70.293457 72.648758,70.531944 
	C86.699944,61.970383 102.042381,57.922626 118.844421,57.792446 
	C118.844421,41.674866 118.916840,25.901960 118.672409,10.133970 
	C118.657028,9.141544 116.085915,7.251955 114.842979,7.361327 
	C103.356125,8.372105 92.704697,12.193955 83.692406,19.335915 
	C79.147461,22.937643 75.784508,28.030884 71.246559,33.122936 
z"/>
<path fill="#1D3666" opacity="1.000000" stroke="none" 
	d="
M71.887085,32.449703 
	C75.784508,28.030884 79.147461,22.937643 83.692406,19.335915 
	C92.704697,12.193955 103.356125,8.372105 114.842979,7.361327 
	C116.085915,7.251955 118.657028,9.141544 118.672409,10.133970 
	C118.916840,25.901960 118.844421,41.674866 118.844421,57.792446 
	C102.042381,57.922626 86.699944,61.970383 72.324127,70.177361 
	C71.962029,57.365086 71.924561,44.907394 71.887085,32.449703 
M83.758949,36.005650 
	C92.261543,32.606865 100.764130,29.208078 109.261513,25.797770 
	C103.499413,24.019033 86.447556,30.018192 83.089325,35.021168 
	C83.026146,35.115303 83.151985,35.336315 83.758949,36.005650 
M81.926041,47.225101 
	C83.051193,47.243912 84.270248,47.557819 85.286491,47.234413 
	C92.779243,44.849930 100.238670,42.359333 107.685760,39.834820 
	C108.449989,39.575752 109.064293,38.874413 110.025246,38.177288 
	C104.690323,36.599384 91.071640,40.830471 81.926041,47.225101 
z"/>
<path fill="#1C3666" opacity="1.000000" stroke="none" 
	d="
M19.004835,7.994261 
	C23.284767,8.352632 27.746851,8.056743 31.811497,9.188380 
	C45.661789,13.044440 57.828217,19.641586 65.501862,33.083206 
	C65.162659,45.984310 64.987625,58.201588 64.812584,70.418869 
	C50.943726,62.251690 35.770851,58.797604 19.436085,57.456261 
	C19.004696,40.617435 19.004765,24.305849 19.004835,7.994261 
M33.938759,28.360289 
	C39.175552,30.797146 44.379711,33.309093 49.675270,35.610752 
	C50.803860,36.101284 52.264851,35.827045 53.572708,35.905136 
	C53.594509,35.341866 53.616310,34.778599 53.638111,34.215328 
	C45.234406,29.300425 36.586983,25.167616 26.708878,24.984072 
	C26.537121,25.579514 26.365366,26.174953 26.193609,26.770395 
	C28.510021,27.240751 30.826433,27.711107 33.938759,28.360289 
M45.730236,44.706657 
	C48.318790,45.863228 50.907345,47.019798 53.495899,48.176369 
	C49.209206,42.069359 32.052444,36.508732 27.116686,38.976299 
	C33.175758,40.787762 39.115273,42.563477 45.730236,44.706657 
z"/>
<path fill="#233A67" opacity="1.000000" stroke="none" 
	d="
M123.873970,63.033669 
	C123.873970,47.910660 123.873970,32.787647 123.873970,17.337004 
	C125.854965,17.217316 127.227333,17.134401 128.759094,17.041855 
	C128.759094,35.146667 128.759094,52.889343 128.759094,70.509109 
	C121.201393,70.509109 113.901794,70.129112 106.656181,70.592712 
	C93.816795,71.414215 82.117836,75.870995 71.243065,82.716835 
	C69.939766,83.537277 67.336624,83.791344 66.128044,83.037712 
	C49.571484,72.713554 31.665611,68.642380 12.305127,70.778152 
	C11.315590,70.887314 10.311329,70.891403 9.314227,70.886223 
	C9.017509,70.884682 8.721824,70.684402 8.150925,70.473877 
	C8.150925,52.818851 8.150925,35.076759 8.150925,17.336105 
	C12.399027,16.069197 12.597769,18.572124 12.590716,21.566748 
	C12.558935,35.061451 12.607430,48.556343 12.745982,62.868309 
	C13.262018,63.854591 13.659062,64.023735 14.056107,64.192879 
	C32.772179,63.307232 50.154743,67.459267 66.077995,77.579140 
	C67.402702,78.421043 70.241173,78.327660 71.595085,77.455742 
	C87.009956,67.528526 103.807220,63.113411 122.818840,64.084068 
	C123.667885,63.716816 123.770927,63.375244 123.873970,63.033669 
z"/>
<path fill="#272D58" opacity="1.000000" stroke="none" 
	d="
M18.630848,8.214401 
	C19.004765,24.305849 19.004696,40.617435 19.007944,57.387657 
	C18.689980,57.196968 18.087828,56.547340 18.088531,55.898373 
	C18.105709,40.077053 18.187048,24.255802 18.630848,8.214401 
z"/>
<path fill="#101F54" opacity="1.000000" stroke="none" 
	d="
M65.153305,70.602142 
	C64.987625,58.201588 65.162659,45.984310 65.547180,33.419155 
	C65.669106,45.642662 65.581566,58.214043 65.153305,70.602142 
z"/>
<path fill="#1F2E5C" opacity="1.000000" stroke="none" 
	d="
M71.566818,32.786320 
	C71.924561,44.907394 71.962029,57.365086 72.004929,70.272652 
	C71.655998,70.293457 70.990997,69.863266 70.992531,69.435471 
	C71.036079,57.331146 71.146805,45.227062 71.566818,32.786320 
z"/>
<path fill="#E1DAD2" opacity="1.000000" stroke="none" 
	d="
M13.901278,63.946449 
	C13.659062,64.023735 13.262018,63.854591 12.861204,63.322693 
	C13.153772,63.206635 13.450111,63.453323 13.901278,63.946449 
z"/>
<path fill="#EEE7DB" opacity="1.000000" stroke="none" 
	d="
M123.689331,63.155907 
	C123.770927,63.375244 123.667885,63.716816 123.283630,64.031067 
	C123.127007,63.732224 123.294426,63.490353 123.689331,63.155907 
z"/>
<path fill="#9F9251" opacity="1.000000" stroke="none" 
	d="
M83.474289,35.751888 
	C83.151985,35.336315 83.026146,35.115303 83.089325,35.021168 
	C86.447556,30.018192 103.499413,24.019033 109.264114,25.803532 
	C100.764130,29.208078 92.261543,32.606865 83.474289,35.751888 
z"/>
<path fill="#A29550" opacity="1.000000" stroke="none" 
	d="
M81.997589,46.878201 
	C91.071640,40.830471 104.690323,36.599384 110.025246,38.177288 
	C109.064293,38.874413 108.449989,39.575752 107.685760,39.834820 
	C100.238670,42.359333 92.779243,44.849930 85.286491,47.234413 
	C84.270248,47.557819 83.051193,47.243912 81.997589,46.878201 
z"/>
<path fill="#A19451" opacity="1.000000" stroke="none" 
	d="
M33.540802,28.270876 
	C30.826433,27.711107 28.510021,27.240751 26.193609,26.770395 
	C26.365366,26.174953 26.537121,25.579514 26.708878,24.984072 
	C36.586983,25.167616 45.234406,29.300425 53.638111,34.215328 
	C53.616310,34.778599 53.594509,35.341866 53.572708,35.905136 
	C52.264851,35.827045 50.803860,36.101284 49.675270,35.610752 
	C44.379711,33.309093 39.175552,30.797146 33.540802,28.270876 
z"/>
<path fill="#A6974F" opacity="1.000000" stroke="none" 
	d="
M45.392509,44.522926 
	C39.115273,42.563477 33.175758,40.787762 27.116686,38.976299 
	C32.052444,36.508732 49.209206,42.069359 53.495899,48.176369 
	C50.907345,47.019798 48.318790,45.863228 45.392509,44.522926 
z"/>
</svg>